<mxfile host="app.diagrams.net" modified="2024-03-20T10:33:28.946Z" agent="Mozilla/5.0 (Windows NT 10.0; Win64; x64) AppleWebKit/537.36 (KHTML, like Gecko) Chrome/122.0.0.0 Safari/537.36" etag="vv6CpC7NiANcc1zrySYj" version="24.0.7" type="device">
  <diagram name="Page-1" id="ZxSLUyG-Lfv59k5_sUDl">
    <mxGraphModel dx="1970" dy="1345" grid="1" gridSize="10" guides="1" tooltips="1" connect="1" arrows="1" fold="1" page="1" pageScale="1" pageWidth="1700" pageHeight="1100" math="0" shadow="0">
      <root>
        <mxCell id="0" />
        <mxCell id="1" parent="0" />
        <mxCell id="6VGfn3pfcpzd_MSDmQnM-1" value="" style="shape=mxgraph.cisco.people.standing_woman;html=1;pointerEvents=1;dashed=0;fillColor=#036897;strokeColor=#ffffff;strokeWidth=2;verticalLabelPosition=bottom;verticalAlign=top;align=center;outlineConnect=0;" vertex="1" parent="1">
          <mxGeometry x="16" y="274" width="32" height="90" as="geometry" />
        </mxCell>
        <mxCell id="6VGfn3pfcpzd_MSDmQnM-2" value="Admin" style="text;html=1;align=center;verticalAlign=middle;whiteSpace=wrap;rounded=0;" vertex="1" parent="1">
          <mxGeometry x="6" y="390" width="60" height="30" as="geometry" />
        </mxCell>
        <mxCell id="6VGfn3pfcpzd_MSDmQnM-3" value="Create new User" style="ellipse;whiteSpace=wrap;html=1;" vertex="1" parent="1">
          <mxGeometry x="471" y="60" width="90" height="50" as="geometry" />
        </mxCell>
        <mxCell id="6VGfn3pfcpzd_MSDmQnM-4" value="Delete User" style="ellipse;whiteSpace=wrap;html=1;" vertex="1" parent="1">
          <mxGeometry x="471" y="120" width="90" height="50" as="geometry" />
        </mxCell>
        <mxCell id="6VGfn3pfcpzd_MSDmQnM-5" value="Edit User" style="ellipse;whiteSpace=wrap;html=1;" vertex="1" parent="1">
          <mxGeometry x="471" y="180" width="90" height="50" as="geometry" />
        </mxCell>
        <mxCell id="6VGfn3pfcpzd_MSDmQnM-6" value="Show all users" style="ellipse;whiteSpace=wrap;html=1;" vertex="1" parent="1">
          <mxGeometry x="131" y="120" width="90" height="50" as="geometry" />
        </mxCell>
        <mxCell id="6VGfn3pfcpzd_MSDmQnM-7" value="Select user" style="ellipse;whiteSpace=wrap;html=1;" vertex="1" parent="1">
          <mxGeometry x="261" y="120" width="90" height="50" as="geometry" />
        </mxCell>
        <mxCell id="6VGfn3pfcpzd_MSDmQnM-8" value="" style="endArrow=none;html=1;rounded=0;entryX=1.055;entryY=0.455;entryDx=0;entryDy=0;entryPerimeter=0;" edge="1" parent="1" target="6VGfn3pfcpzd_MSDmQnM-6">
          <mxGeometry width="50" height="50" relative="1" as="geometry">
            <mxPoint x="261" y="143" as="sourcePoint" />
            <mxPoint x="461" y="90" as="targetPoint" />
          </mxGeometry>
        </mxCell>
        <mxCell id="6VGfn3pfcpzd_MSDmQnM-9" value="" style="endArrow=none;html=1;rounded=0;exitX=1;exitY=0.5;exitDx=0;exitDy=0;" edge="1" parent="1">
          <mxGeometry width="50" height="50" relative="1" as="geometry">
            <mxPoint x="391" y="115" as="sourcePoint" />
            <mxPoint x="470" y="80" as="targetPoint" />
            <Array as="points">
              <mxPoint x="391" y="80" />
            </Array>
          </mxGeometry>
        </mxCell>
        <mxCell id="6VGfn3pfcpzd_MSDmQnM-10" value="" style="endArrow=none;html=1;rounded=0;exitX=1;exitY=0.5;exitDx=0;exitDy=0;entryX=0;entryY=0.5;entryDx=0;entryDy=0;" edge="1" parent="1" target="6VGfn3pfcpzd_MSDmQnM-5">
          <mxGeometry width="50" height="50" relative="1" as="geometry">
            <mxPoint x="391" y="115" as="sourcePoint" />
            <mxPoint x="501" y="120" as="targetPoint" />
            <Array as="points">
              <mxPoint x="391" y="205" />
            </Array>
          </mxGeometry>
        </mxCell>
        <mxCell id="6VGfn3pfcpzd_MSDmQnM-11" value="" style="endArrow=none;html=1;rounded=0;entryX=0;entryY=0.5;entryDx=0;entryDy=0;" edge="1" parent="1" target="6VGfn3pfcpzd_MSDmQnM-4">
          <mxGeometry width="50" height="50" relative="1" as="geometry">
            <mxPoint x="390" y="145" as="sourcePoint" />
            <mxPoint x="501" y="154.68" as="targetPoint" />
          </mxGeometry>
        </mxCell>
        <mxCell id="6VGfn3pfcpzd_MSDmQnM-12" value="" style="endArrow=none;html=1;rounded=0;entryX=0;entryY=0.5;entryDx=0;entryDy=0;exitX=0;exitY=0.5;exitDx=0;exitDy=0;" edge="1" parent="1" source="6VGfn3pfcpzd_MSDmQnM-19" target="6VGfn3pfcpzd_MSDmQnM-6">
          <mxGeometry width="50" height="50" relative="1" as="geometry">
            <mxPoint x="90" y="440" as="sourcePoint" />
            <mxPoint x="489" y="170" as="targetPoint" />
            <Array as="points">
              <mxPoint x="90" y="455" />
              <mxPoint x="90" y="145" />
            </Array>
          </mxGeometry>
        </mxCell>
        <mxCell id="6VGfn3pfcpzd_MSDmQnM-13" value="Create new Role" style="ellipse;whiteSpace=wrap;html=1;" vertex="1" parent="1">
          <mxGeometry x="181" y="285" width="90" height="50" as="geometry" />
        </mxCell>
        <mxCell id="6VGfn3pfcpzd_MSDmQnM-14" value="Show all roles" style="ellipse;whiteSpace=wrap;html=1;" vertex="1" parent="1">
          <mxGeometry x="181" y="230" width="90" height="50" as="geometry" />
        </mxCell>
        <mxCell id="6VGfn3pfcpzd_MSDmQnM-15" value="" style="endArrow=none;html=1;rounded=0;exitX=0;exitY=0.5;exitDx=0;exitDy=0;" edge="1" parent="1">
          <mxGeometry width="50" height="50" relative="1" as="geometry">
            <mxPoint x="391" y="144.62" as="sourcePoint" />
            <mxPoint x="351" y="144.62" as="targetPoint" />
          </mxGeometry>
        </mxCell>
        <mxCell id="6VGfn3pfcpzd_MSDmQnM-16" value="" style="endArrow=none;html=1;rounded=0;" edge="1" parent="1">
          <mxGeometry width="50" height="50" relative="1" as="geometry">
            <mxPoint x="181" y="309.62" as="sourcePoint" />
            <mxPoint x="141" y="309.62" as="targetPoint" />
          </mxGeometry>
        </mxCell>
        <mxCell id="6VGfn3pfcpzd_MSDmQnM-17" value="" style="endArrow=none;html=1;rounded=0;entryX=0;entryY=0.5;entryDx=0;entryDy=0;" edge="1" parent="1" target="6VGfn3pfcpzd_MSDmQnM-14">
          <mxGeometry width="50" height="50" relative="1" as="geometry">
            <mxPoint x="141" y="310" as="sourcePoint" />
            <mxPoint x="141" y="250" as="targetPoint" />
            <Array as="points">
              <mxPoint x="141" y="255" />
            </Array>
          </mxGeometry>
        </mxCell>
        <mxCell id="6VGfn3pfcpzd_MSDmQnM-18" value="" style="endArrow=none;html=1;rounded=0;" edge="1" parent="1">
          <mxGeometry width="50" height="50" relative="1" as="geometry">
            <mxPoint x="141" y="285" as="sourcePoint" />
            <mxPoint x="90" y="285" as="targetPoint" />
          </mxGeometry>
        </mxCell>
        <mxCell id="6VGfn3pfcpzd_MSDmQnM-19" value="Review Pet Fostering" style="ellipse;whiteSpace=wrap;html=1;" vertex="1" parent="1">
          <mxGeometry x="140" y="430" width="110" height="50" as="geometry" />
        </mxCell>
        <mxCell id="6VGfn3pfcpzd_MSDmQnM-20" value="Approve Pet Fostering" style="ellipse;whiteSpace=wrap;html=1;" vertex="1" parent="1">
          <mxGeometry x="290" y="430" width="110" height="50" as="geometry" />
        </mxCell>
        <mxCell id="6VGfn3pfcpzd_MSDmQnM-21" value="Delete Pet&amp;nbsp;" style="ellipse;whiteSpace=wrap;html=1;" vertex="1" parent="1">
          <mxGeometry x="471" y="404" width="110" height="50" as="geometry" />
        </mxCell>
        <mxCell id="6VGfn3pfcpzd_MSDmQnM-22" value="" style="endArrow=none;html=1;rounded=0;" edge="1" parent="1">
          <mxGeometry width="50" height="50" relative="1" as="geometry">
            <mxPoint x="290" y="454.62" as="sourcePoint" />
            <mxPoint x="250" y="454.62" as="targetPoint" />
          </mxGeometry>
        </mxCell>
        <mxCell id="6VGfn3pfcpzd_MSDmQnM-23" value="" style="endArrow=none;html=1;rounded=0;" edge="1" parent="1">
          <mxGeometry width="50" height="50" relative="1" as="geometry">
            <mxPoint x="440" y="454.62" as="sourcePoint" />
            <mxPoint x="400" y="454.62" as="targetPoint" />
          </mxGeometry>
        </mxCell>
        <mxCell id="6VGfn3pfcpzd_MSDmQnM-24" value="Modify pet-foster and customer" style="ellipse;whiteSpace=wrap;html=1;" vertex="1" parent="1">
          <mxGeometry x="471" y="470" width="110" height="50" as="geometry" />
        </mxCell>
        <mxCell id="6VGfn3pfcpzd_MSDmQnM-25" value="Review Product Modification" style="ellipse;whiteSpace=wrap;html=1;" vertex="1" parent="1">
          <mxGeometry x="140" y="340" width="110" height="50" as="geometry" />
        </mxCell>
        <mxCell id="6VGfn3pfcpzd_MSDmQnM-26" value="" style="endArrow=none;html=1;rounded=0;" edge="1" parent="1">
          <mxGeometry width="50" height="50" relative="1" as="geometry">
            <mxPoint x="140" y="364.62" as="sourcePoint" />
            <mxPoint x="89" y="364.62" as="targetPoint" />
          </mxGeometry>
        </mxCell>
        <mxCell id="6VGfn3pfcpzd_MSDmQnM-27" value="Approve Product Modification" style="ellipse;whiteSpace=wrap;html=1;" vertex="1" parent="1">
          <mxGeometry x="290" y="340" width="110" height="50" as="geometry" />
        </mxCell>
        <mxCell id="6VGfn3pfcpzd_MSDmQnM-28" value="Edit product" style="ellipse;whiteSpace=wrap;html=1;" vertex="1" parent="1">
          <mxGeometry x="471" y="340" width="110" height="50" as="geometry" />
        </mxCell>
        <mxCell id="6VGfn3pfcpzd_MSDmQnM-29" value="" style="endArrow=none;html=1;rounded=0;" edge="1" parent="1">
          <mxGeometry width="50" height="50" relative="1" as="geometry">
            <mxPoint x="290" y="364.62" as="sourcePoint" />
            <mxPoint x="250" y="364.62" as="targetPoint" />
          </mxGeometry>
        </mxCell>
        <mxCell id="6VGfn3pfcpzd_MSDmQnM-30" value="" style="endArrow=none;html=1;rounded=0;exitX=0;exitY=0.5;exitDx=0;exitDy=0;" edge="1" parent="1" source="6VGfn3pfcpzd_MSDmQnM-28">
          <mxGeometry width="50" height="50" relative="1" as="geometry">
            <mxPoint x="440" y="364.62" as="sourcePoint" />
            <mxPoint x="400" y="364.62" as="targetPoint" />
          </mxGeometry>
        </mxCell>
        <mxCell id="6VGfn3pfcpzd_MSDmQnM-31" value="" style="endArrow=none;html=1;rounded=0;exitX=0;exitY=0.5;exitDx=0;exitDy=0;" edge="1" parent="1" source="6VGfn3pfcpzd_MSDmQnM-24">
          <mxGeometry width="50" height="50" relative="1" as="geometry">
            <mxPoint x="480" y="495" as="sourcePoint" />
            <mxPoint x="470" y="430" as="targetPoint" />
            <Array as="points">
              <mxPoint x="440" y="495" />
              <mxPoint x="440" y="430" />
            </Array>
          </mxGeometry>
        </mxCell>
        <mxCell id="6VGfn3pfcpzd_MSDmQnM-32" value="" style="endArrow=none;html=1;rounded=0;exitX=0.99;exitY=0.5;exitDx=0;exitDy=0;exitPerimeter=0;" edge="1" parent="1" source="6VGfn3pfcpzd_MSDmQnM-1">
          <mxGeometry width="50" height="50" relative="1" as="geometry">
            <mxPoint x="240" y="340" as="sourcePoint" />
            <mxPoint x="90" y="320" as="targetPoint" />
          </mxGeometry>
        </mxCell>
        <mxCell id="6VGfn3pfcpzd_MSDmQnM-33" value="" style="shape=mxgraph.cisco.people.standing_woman;html=1;pointerEvents=1;dashed=0;fillColor=#036897;strokeColor=#ffffff;strokeWidth=2;verticalLabelPosition=bottom;verticalAlign=top;align=center;outlineConnect=0;" vertex="1" parent="1">
          <mxGeometry x="26" y="774" width="32" height="90" as="geometry" />
        </mxCell>
        <mxCell id="6VGfn3pfcpzd_MSDmQnM-34" value="Customer" style="text;html=1;align=center;verticalAlign=middle;whiteSpace=wrap;rounded=0;" vertex="1" parent="1">
          <mxGeometry x="12" y="864" width="60" height="30" as="geometry" />
        </mxCell>
        <mxCell id="6VGfn3pfcpzd_MSDmQnM-35" value="" style="endArrow=none;html=1;rounded=0;entryX=0;entryY=0.5;entryDx=0;entryDy=0;exitX=0;exitY=0.5;exitDx=0;exitDy=0;" edge="1" parent="1" source="6VGfn3pfcpzd_MSDmQnM-39">
          <mxGeometry width="50" height="50" relative="1" as="geometry">
            <mxPoint x="150.0000000000025" y="955" as="sourcePoint" />
            <mxPoint x="141" y="645" as="targetPoint" />
            <Array as="points">
              <mxPoint x="100" y="819" />
              <mxPoint x="100" y="645" />
            </Array>
          </mxGeometry>
        </mxCell>
        <mxCell id="6VGfn3pfcpzd_MSDmQnM-36" value="Add product to wishlist" style="ellipse;whiteSpace=wrap;html=1;" vertex="1" parent="1">
          <mxGeometry x="440" y="570" width="90" height="50" as="geometry" />
        </mxCell>
        <mxCell id="6VGfn3pfcpzd_MSDmQnM-37" value="Add product to cart" style="ellipse;whiteSpace=wrap;html=1;" vertex="1" parent="1">
          <mxGeometry x="440" y="724" width="90" height="50" as="geometry" />
        </mxCell>
        <mxCell id="6VGfn3pfcpzd_MSDmQnM-38" value="Show all categories" style="ellipse;whiteSpace=wrap;html=1;" vertex="1" parent="1">
          <mxGeometry x="140" y="620" width="90" height="50" as="geometry" />
        </mxCell>
        <mxCell id="6VGfn3pfcpzd_MSDmQnM-39" value="Show all pets" style="ellipse;whiteSpace=wrap;html=1;" vertex="1" parent="1">
          <mxGeometry x="140" y="794" width="90" height="50" as="geometry" />
        </mxCell>
        <mxCell id="6VGfn3pfcpzd_MSDmQnM-40" value="Show all products" style="ellipse;whiteSpace=wrap;html=1;" vertex="1" parent="1">
          <mxGeometry x="140" y="692" width="90" height="50" as="geometry" />
        </mxCell>
        <mxCell id="6VGfn3pfcpzd_MSDmQnM-41" value="Modify Customer Wishlist" style="ellipse;whiteSpace=wrap;html=1;" vertex="1" parent="1">
          <mxGeometry x="570" y="570" width="90" height="50" as="geometry" />
        </mxCell>
        <mxCell id="6VGfn3pfcpzd_MSDmQnM-42" value="Select pet" style="ellipse;whiteSpace=wrap;html=1;" vertex="1" parent="1">
          <mxGeometry x="270" y="794" width="90" height="50" as="geometry" />
        </mxCell>
        <mxCell id="6VGfn3pfcpzd_MSDmQnM-43" value="Request&amp;nbsp; adoption" style="ellipse;whiteSpace=wrap;html=1;" vertex="1" parent="1">
          <mxGeometry x="400" y="794" width="90" height="50" as="geometry" />
        </mxCell>
        <mxCell id="6VGfn3pfcpzd_MSDmQnM-44" value="" style="endArrow=none;html=1;rounded=0;entryX=0;entryY=0.5;entryDx=0;entryDy=0;" edge="1" parent="1">
          <mxGeometry width="50" height="50" relative="1" as="geometry">
            <mxPoint x="530" y="594.5799999999999" as="sourcePoint" />
            <mxPoint x="570" y="594.5799999999999" as="targetPoint" />
          </mxGeometry>
        </mxCell>
        <mxCell id="6VGfn3pfcpzd_MSDmQnM-45" value="" style="endArrow=none;html=1;rounded=0;entryX=0;entryY=0.5;entryDx=0;entryDy=0;" edge="1" parent="1">
          <mxGeometry width="50" height="50" relative="1" as="geometry">
            <mxPoint x="100" y="720" as="sourcePoint" />
            <mxPoint x="140" y="720" as="targetPoint" />
          </mxGeometry>
        </mxCell>
        <mxCell id="6VGfn3pfcpzd_MSDmQnM-46" value="" style="endArrow=none;html=1;rounded=0;entryX=0;entryY=0.5;entryDx=0;entryDy=0;" edge="1" parent="1">
          <mxGeometry width="50" height="50" relative="1" as="geometry">
            <mxPoint x="230" y="818.7599999999999" as="sourcePoint" />
            <mxPoint x="270" y="818.7599999999999" as="targetPoint" />
          </mxGeometry>
        </mxCell>
        <mxCell id="6VGfn3pfcpzd_MSDmQnM-47" value="" style="endArrow=none;html=1;rounded=0;entryX=0;entryY=0.5;entryDx=0;entryDy=0;" edge="1" parent="1">
          <mxGeometry width="50" height="50" relative="1" as="geometry">
            <mxPoint x="360" y="818.7599999999999" as="sourcePoint" />
            <mxPoint x="400" y="818.7599999999999" as="targetPoint" />
          </mxGeometry>
        </mxCell>
        <mxCell id="6VGfn3pfcpzd_MSDmQnM-48" value="" style="shape=mxgraph.cisco.people.standing_woman;html=1;pointerEvents=1;dashed=0;fillColor=#036897;strokeColor=#ffffff;strokeWidth=2;verticalLabelPosition=bottom;verticalAlign=top;align=center;outlineConnect=0;" vertex="1" parent="1">
          <mxGeometry x="30" y="1164" width="32" height="90" as="geometry" />
        </mxCell>
        <mxCell id="6VGfn3pfcpzd_MSDmQnM-49" value="Seller" style="text;html=1;align=center;verticalAlign=middle;whiteSpace=wrap;rounded=0;" vertex="1" parent="1">
          <mxGeometry x="16" y="1254" width="60" height="30" as="geometry" />
        </mxCell>
        <mxCell id="6VGfn3pfcpzd_MSDmQnM-50" value="" style="endArrow=none;html=1;rounded=0;entryX=0;entryY=0.5;entryDx=0;entryDy=0;exitX=0;exitY=0.5;exitDx=0;exitDy=0;" edge="1" parent="1" source="6VGfn3pfcpzd_MSDmQnM-54">
          <mxGeometry width="50" height="50" relative="1" as="geometry">
            <mxPoint x="154.0000000000025" y="1345" as="sourcePoint" />
            <mxPoint x="145" y="1035" as="targetPoint" />
            <Array as="points">
              <mxPoint x="104" y="1310" />
              <mxPoint x="104" y="1035" />
            </Array>
          </mxGeometry>
        </mxCell>
        <mxCell id="6VGfn3pfcpzd_MSDmQnM-51" value="" style="endArrow=none;html=1;rounded=0;exitX=0.99;exitY=0.5;exitDx=0;exitDy=0;exitPerimeter=0;" edge="1" parent="1" source="6VGfn3pfcpzd_MSDmQnM-48">
          <mxGeometry width="50" height="50" relative="1" as="geometry">
            <mxPoint x="254" y="1230" as="sourcePoint" />
            <mxPoint x="104" y="1210" as="targetPoint" />
          </mxGeometry>
        </mxCell>
        <mxCell id="6VGfn3pfcpzd_MSDmQnM-52" value="" style="ellipse;whiteSpace=wrap;html=1;" vertex="1" parent="1">
          <mxGeometry x="144" y="1220" width="90" height="50" as="geometry" />
        </mxCell>
        <mxCell id="6VGfn3pfcpzd_MSDmQnM-53" value="&lt;span style=&quot;font-size: 11px;&quot;&gt;Add new product to sell&lt;/span&gt;" style="ellipse;whiteSpace=wrap;html=1;" vertex="1" parent="1">
          <mxGeometry x="144" y="1010" width="126" height="60" as="geometry" />
        </mxCell>
        <mxCell id="6VGfn3pfcpzd_MSDmQnM-54" value="Show all pets" style="ellipse;whiteSpace=wrap;html=1;" vertex="1" parent="1">
          <mxGeometry x="154" y="1284" width="90" height="50" as="geometry" />
        </mxCell>
        <mxCell id="6VGfn3pfcpzd_MSDmQnM-55" value="Select pet" style="ellipse;whiteSpace=wrap;html=1;" vertex="1" parent="1">
          <mxGeometry x="284" y="1284" width="90" height="50" as="geometry" />
        </mxCell>
        <mxCell id="6VGfn3pfcpzd_MSDmQnM-56" value="Request&amp;nbsp; adoption" style="ellipse;whiteSpace=wrap;html=1;" vertex="1" parent="1">
          <mxGeometry x="414" y="1284" width="90" height="50" as="geometry" />
        </mxCell>
        <mxCell id="6VGfn3pfcpzd_MSDmQnM-57" value="" style="endArrow=none;html=1;rounded=0;entryX=0;entryY=0.5;entryDx=0;entryDy=0;" edge="1" parent="1" target="6VGfn3pfcpzd_MSDmQnM-52">
          <mxGeometry width="50" height="50" relative="1" as="geometry">
            <mxPoint x="104" y="1245" as="sourcePoint" />
            <mxPoint x="574" y="1160" as="targetPoint" />
          </mxGeometry>
        </mxCell>
        <mxCell id="6VGfn3pfcpzd_MSDmQnM-58" value="" style="endArrow=none;html=1;rounded=0;entryX=0;entryY=0.5;entryDx=0;entryDy=0;" edge="1" parent="1">
          <mxGeometry width="50" height="50" relative="1" as="geometry">
            <mxPoint x="104" y="1179.58" as="sourcePoint" />
            <mxPoint x="144" y="1179.58" as="targetPoint" />
          </mxGeometry>
        </mxCell>
        <mxCell id="6VGfn3pfcpzd_MSDmQnM-59" value="" style="endArrow=none;html=1;rounded=0;entryX=0;entryY=0.5;entryDx=0;entryDy=0;" edge="1" parent="1">
          <mxGeometry width="50" height="50" relative="1" as="geometry">
            <mxPoint x="530" y="1190" as="sourcePoint" />
            <mxPoint x="570" y="1190" as="targetPoint" />
          </mxGeometry>
        </mxCell>
        <mxCell id="6VGfn3pfcpzd_MSDmQnM-60" value="" style="endArrow=none;html=1;rounded=0;entryX=0;entryY=0.5;entryDx=0;entryDy=0;" edge="1" parent="1">
          <mxGeometry width="50" height="50" relative="1" as="geometry">
            <mxPoint x="104" y="1110" as="sourcePoint" />
            <mxPoint x="144" y="1110" as="targetPoint" />
          </mxGeometry>
        </mxCell>
        <mxCell id="6VGfn3pfcpzd_MSDmQnM-61" value="" style="endArrow=none;html=1;rounded=0;entryX=0;entryY=0.5;entryDx=0;entryDy=0;" edge="1" parent="1">
          <mxGeometry width="50" height="50" relative="1" as="geometry">
            <mxPoint x="244" y="1308.7599999999998" as="sourcePoint" />
            <mxPoint x="284" y="1308.7599999999998" as="targetPoint" />
          </mxGeometry>
        </mxCell>
        <mxCell id="6VGfn3pfcpzd_MSDmQnM-62" value="" style="endArrow=none;html=1;rounded=0;entryX=0;entryY=0.5;entryDx=0;entryDy=0;" edge="1" parent="1">
          <mxGeometry width="50" height="50" relative="1" as="geometry">
            <mxPoint x="374" y="1308.7599999999998" as="sourcePoint" />
            <mxPoint x="414" y="1308.7599999999998" as="targetPoint" />
          </mxGeometry>
        </mxCell>
        <mxCell id="6VGfn3pfcpzd_MSDmQnM-63" value="Select product" style="ellipse;whiteSpace=wrap;html=1;" vertex="1" parent="1">
          <mxGeometry x="271" y="692" width="90" height="50" as="geometry" />
        </mxCell>
        <mxCell id="6VGfn3pfcpzd_MSDmQnM-64" value="" style="endArrow=none;html=1;rounded=0;entryX=0;entryY=0.5;entryDx=0;entryDy=0;" edge="1" parent="1">
          <mxGeometry width="50" height="50" relative="1" as="geometry">
            <mxPoint x="231" y="720" as="sourcePoint" />
            <mxPoint x="271" y="720" as="targetPoint" />
          </mxGeometry>
        </mxCell>
        <mxCell id="6VGfn3pfcpzd_MSDmQnM-65" value="" style="endArrow=none;html=1;rounded=0;entryX=0;entryY=0.5;entryDx=0;entryDy=0;" edge="1" parent="1">
          <mxGeometry width="50" height="50" relative="1" as="geometry">
            <mxPoint x="400" y="748.64" as="sourcePoint" />
            <mxPoint x="440" y="748.64" as="targetPoint" />
          </mxGeometry>
        </mxCell>
        <mxCell id="6VGfn3pfcpzd_MSDmQnM-66" value="" style="endArrow=none;html=1;rounded=0;" edge="1" parent="1">
          <mxGeometry width="50" height="50" relative="1" as="geometry">
            <mxPoint x="400" y="590" as="sourcePoint" />
            <mxPoint x="400" y="750" as="targetPoint" />
          </mxGeometry>
        </mxCell>
        <mxCell id="6VGfn3pfcpzd_MSDmQnM-67" value="" style="endArrow=none;html=1;rounded=0;exitX=1;exitY=0.5;exitDx=0;exitDy=0;" edge="1" parent="1" source="6VGfn3pfcpzd_MSDmQnM-63">
          <mxGeometry width="50" height="50" relative="1" as="geometry">
            <mxPoint x="311" y="693" as="sourcePoint" />
            <mxPoint x="400" y="716" as="targetPoint" />
          </mxGeometry>
        </mxCell>
        <mxCell id="6VGfn3pfcpzd_MSDmQnM-68" value="Buy product" style="ellipse;whiteSpace=wrap;html=1;" vertex="1" parent="1">
          <mxGeometry x="570" y="724" width="90" height="50" as="geometry" />
        </mxCell>
        <mxCell id="6VGfn3pfcpzd_MSDmQnM-69" value="Modify product quantity" style="ellipse;whiteSpace=wrap;html=1;" vertex="1" parent="1">
          <mxGeometry x="720" y="659" width="90" height="50" as="geometry" />
        </mxCell>
        <mxCell id="6VGfn3pfcpzd_MSDmQnM-70" value="" style="endArrow=none;html=1;rounded=0;entryX=0;entryY=0.5;entryDx=0;entryDy=0;" edge="1" parent="1">
          <mxGeometry width="50" height="50" relative="1" as="geometry">
            <mxPoint x="530" y="748.5799999999999" as="sourcePoint" />
            <mxPoint x="570" y="748.5799999999999" as="targetPoint" />
          </mxGeometry>
        </mxCell>
        <mxCell id="6VGfn3pfcpzd_MSDmQnM-71" value="" style="endArrow=none;html=1;rounded=0;entryX=0;entryY=0.5;entryDx=0;entryDy=0;" edge="1" parent="1">
          <mxGeometry width="50" height="50" relative="1" as="geometry">
            <mxPoint x="660" y="748.8" as="sourcePoint" />
            <mxPoint x="700" y="748.8" as="targetPoint" />
          </mxGeometry>
        </mxCell>
        <mxCell id="6VGfn3pfcpzd_MSDmQnM-72" value="&lt;font style=&quot;font-size: 11px;&quot;&gt;Edit details for existing owned product&lt;/font&gt;" style="ellipse;whiteSpace=wrap;html=1;" vertex="1" parent="1">
          <mxGeometry x="145" y="1080" width="126" height="60" as="geometry" />
        </mxCell>
        <mxCell id="6VGfn3pfcpzd_MSDmQnM-73" value="Edit seller&#39;s&lt;div&gt;&amp;nbsp;product list&lt;/div&gt;" style="ellipse;whiteSpace=wrap;html=1;" vertex="1" parent="1">
          <mxGeometry x="471" y="1000" width="126" height="60" as="geometry" />
        </mxCell>
        <mxCell id="6VGfn3pfcpzd_MSDmQnM-74" value="" style="endArrow=none;html=1;rounded=0;entryX=0;entryY=0.5;entryDx=0;entryDy=0;" edge="1" parent="1">
          <mxGeometry width="50" height="50" relative="1" as="geometry">
            <mxPoint x="270" y="1040" as="sourcePoint" />
            <mxPoint x="310" y="1040" as="targetPoint" />
          </mxGeometry>
        </mxCell>
        <mxCell id="6VGfn3pfcpzd_MSDmQnM-75" value="&amp;nbsp; Modify&amp;nbsp; balance seller" style="ellipse;whiteSpace=wrap;html=1;" vertex="1" parent="1">
          <mxGeometry x="720" y="724" width="90" height="50" as="geometry" />
        </mxCell>
        <mxCell id="6VGfn3pfcpzd_MSDmQnM-76" value="&amp;nbsp; Modify&amp;nbsp; balance customer" style="ellipse;whiteSpace=wrap;html=1;" vertex="1" parent="1">
          <mxGeometry x="720" y="787" width="90" height="50" as="geometry" />
        </mxCell>
        <mxCell id="6VGfn3pfcpzd_MSDmQnM-77" value="" style="endArrow=none;html=1;rounded=0;entryX=0;entryY=0.5;entryDx=0;entryDy=0;" edge="1" parent="1" target="6VGfn3pfcpzd_MSDmQnM-69">
          <mxGeometry width="50" height="50" relative="1" as="geometry">
            <mxPoint x="700" y="750" as="sourcePoint" />
            <mxPoint x="550" y="720" as="targetPoint" />
            <Array as="points">
              <mxPoint x="700" y="684" />
            </Array>
          </mxGeometry>
        </mxCell>
        <mxCell id="6VGfn3pfcpzd_MSDmQnM-78" value="" style="endArrow=none;html=1;rounded=0;entryX=-0.048;entryY=0.4;entryDx=0;entryDy=0;entryPerimeter=0;" edge="1" parent="1" target="6VGfn3pfcpzd_MSDmQnM-76">
          <mxGeometry width="50" height="50" relative="1" as="geometry">
            <mxPoint x="700" y="750" as="sourcePoint" />
            <mxPoint x="550" y="720" as="targetPoint" />
            <Array as="points">
              <mxPoint x="700" y="807" />
            </Array>
          </mxGeometry>
        </mxCell>
        <mxCell id="6VGfn3pfcpzd_MSDmQnM-79" value="" style="endArrow=none;html=1;rounded=0;entryX=0;entryY=0.5;entryDx=0;entryDy=0;" edge="1" parent="1">
          <mxGeometry width="50" height="50" relative="1" as="geometry">
            <mxPoint x="700" y="749" as="sourcePoint" />
            <mxPoint x="720" y="749" as="targetPoint" />
          </mxGeometry>
        </mxCell>
        <mxCell id="6VGfn3pfcpzd_MSDmQnM-80" value="" style="endArrow=none;html=1;rounded=0;entryX=0;entryY=0.5;entryDx=0;entryDy=0;" edge="1" parent="1">
          <mxGeometry width="50" height="50" relative="1" as="geometry">
            <mxPoint x="400" y="594.9499999999999" as="sourcePoint" />
            <mxPoint x="440" y="594.9499999999999" as="targetPoint" />
          </mxGeometry>
        </mxCell>
        <mxCell id="6VGfn3pfcpzd_MSDmQnM-81" value="&lt;font style=&quot;font-size: 11px;&quot;&gt;Edit details for existing owned product&lt;/font&gt;" style="ellipse;whiteSpace=wrap;html=1;" vertex="1" parent="1">
          <mxGeometry x="145" y="1150" width="126" height="60" as="geometry" />
        </mxCell>
        <mxCell id="6VGfn3pfcpzd_MSDmQnM-82" value="&lt;font style=&quot;font-size: 11px;&quot;&gt;Create new product to sell&lt;/font&gt;" style="ellipse;whiteSpace=wrap;html=1;" vertex="1" parent="1">
          <mxGeometry x="300" y="1010" width="126" height="60" as="geometry" />
        </mxCell>
      </root>
    </mxGraphModel>
  </diagram>
</mxfile>
